HIERARCHY
ROOT Hips
{
	OFFSET 0.00000 0.00000 0.00000
	CHANNELS 6 Xposition Yposition Zposition Zrotation Yrotation Xrotation 
	JOINT LHipJoint
	{
		OFFSET 0 0 0
		CHANNELS 3 Zrotation Yrotation Xrotation
		JOINT LeftUpLeg
		{
			OFFSET 1.38615 -1.80049 0.80104
			CHANNELS 3 Zrotation Yrotation Xrotation
			JOINT LeftLeg
			{
				OFFSET 2.50172 -6.87341 0.00000
				CHANNELS 3 Zrotation Yrotation Xrotation
				JOINT LeftFoot
				{
					OFFSET 2.67523 -7.35014 0.00000
					CHANNELS 3 Zrotation Yrotation Xrotation
					JOINT LeftToeBase
					{
						OFFSET 0.17446 -0.47932 2.13155
						CHANNELS 3 Zrotation Yrotation Xrotation
						End Site
						{
							OFFSET 0.00000 -0.00000 1.10023
						}
					}
				}
			}
		}
	}
	JOINT RHipJoint
	{
		OFFSET 0 0 0
		CHANNELS 3 Zrotation Yrotation Xrotation
		JOINT RightUpLeg
		{
			OFFSET -1.18047 -1.80049 0.80104
			CHANNELS 3 Zrotation Yrotation Xrotation
			JOINT RightLeg
			{
				OFFSET -2.59789 -7.13765 0.00000
				CHANNELS 3 Zrotation Yrotation Xrotation
				JOINT RightFoot
				{
					OFFSET -2.62125 -7.20183 0.00000
					CHANNELS 3 Zrotation Yrotation Xrotation
					JOINT RightToeBase
					{
						OFFSET -0.31287 -0.85960 2.07814
						CHANNELS 3 Zrotation Yrotation Xrotation
						End Site
						{
							OFFSET -0.00000 -0.00000 1.11766
						}
					}
				}
			}
		}
	}
	JOINT LowerBack
	{
		OFFSET 0 0 0
		CHANNELS 3 Zrotation Yrotation Xrotation
		JOINT Spine
		{
			OFFSET -0.01587 2.16157 -0.12309
			CHANNELS 3 Zrotation Yrotation Xrotation
			JOINT Spine1
			{
				OFFSET 0.04727 2.16674 -0.03569
				CHANNELS 3 Zrotation Yrotation Xrotation
				JOINT Neck
				{
					OFFSET 0 0 0
					CHANNELS 3 Zrotation Yrotation Xrotation
					JOINT Neck1
					{
						OFFSET -0.08586 1.60335 0.32783
						CHANNELS 3 Zrotation Yrotation Xrotation
						JOINT Head
						{
							OFFSET 0.07583 1.65857 -0.31618
							CHANNELS 3 Zrotation Yrotation Xrotation
							End Site
							{
								OFFSET 0.03386 1.69434 -0.14584
							}
						}
					}
				}
				JOINT LeftShoulder
				{
					OFFSET 0 0 0
					CHANNELS 3 Zrotation Yrotation Xrotation
					JOINT LeftArm
					{
						OFFSET 3.17393 1.01901 -0.52897
						CHANNELS 3 Zrotation Yrotation Xrotation
						JOINT LeftForeArm
						{
							OFFSET 5.25287 -0.00000 -0.00000
							CHANNELS 3 Zrotation Yrotation Xrotation
							JOINT LeftHand
							{
								OFFSET 3.51014 -0.00000 0.00000
								CHANNELS 3 Zrotation Yrotation Xrotation
								JOINT LeftFingerBase
								{
									OFFSET 0 0 0
									CHANNELS 3 Zrotation Yrotation Xrotation
									JOINT LeftHandIndex1
									{
										OFFSET 0.70618 -0.00000 -0.00000
										CHANNELS 3 Zrotation Yrotation Xrotation
										End Site
										{
											OFFSET 0.56934 -0.00000 -0.00000
										}
									}
								}
								JOINT LThumb
								{
									OFFSET 0 0 0
									CHANNELS 3 Zrotation Yrotation Xrotation
									End Site
									{
										OFFSET 0.57803 -0.00000 0.57803
									}
								}
							}
						}
					}
				}
				JOINT RightShoulder
				{
					OFFSET 0 0 0
					CHANNELS 3 Zrotation Yrotation Xrotation
					JOINT RightArm
					{
						OFFSET -2.99471 1.26495 -0.61125
						CHANNELS 3 Zrotation Yrotation Xrotation
						JOINT RightForeArm
						{
							OFFSET -5.28721 -0.00000 -0.00000
							CHANNELS 3 Zrotation Yrotation Xrotation
							JOINT RightHand
							{
								OFFSET -3.50544 -0.00000 0.00000
								CHANNELS 3 Zrotation Yrotation Xrotation
								JOINT RightFingerBase
								{
									OFFSET 0 0 0
									CHANNELS 3 Zrotation Yrotation Xrotation
									JOINT RightHandIndex1
									{
										OFFSET -0.88500 -0.00000 -0.00000
										CHANNELS 3 Zrotation Yrotation Xrotation
										End Site
										{
											OFFSET -0.71351 -0.00000 -0.00000
										}
									}
								}
								JOINT RThumb
								{
									OFFSET 0 0 0
									CHANNELS 3 Zrotation Yrotation Xrotation
									End Site
									{
										OFFSET -0.72440 -0.00000 0.72440
									}
								}
							}
						}
					}
				}
			}
		}
	}
}
MOTION
Frames: 9
Frame Time: .0083333
8.9594 18.0522 0.2335 -3.5249 -20.3094 4.8405 0.0000 0.0000 0.0000 -3.1662 1.8956 -26.8802 7.6781 15.8773 51.3946 -0.0017 -5.7666 -3.9903 0.2488 -3.2098 -8.8634 0.0000 0.0000 0.0000 22.2749 3.7416 -7.4913 -2.2415 -9.3520 26.9026 -1.5876 1.6535 -23.3567 -0.8483 5.8744 -16.4204 0.1517 -0.1989 5.4960 3.9709 -0.2247 2.0997 4.0253 -0.1330 -0.9040 -6.4001 -0.7881 -22.8984 0.6575 0.9922 23.0707 1.4596 -0.0559 11.2714 -0.0000 0.0000 0.0000 -85.0685 2.8344 14.3668 21.5597 -32.4758 -6.3478 -0.0000 -0.0000 12.5896 4.9893 33.1002 2.7295 -7.1250 0.0000 -0.0000 -31.6604 60.2939 -12.5469 -0.0000 0.0000 0.0000 47.4312 11.2486 28.4369 -135.7379 50.4018 -98.3314 0.0000 0.0000 33.4890 -54.9160 43.0191 -44.1662 7.1250 -0.0000 -0.0000 -7.8570 27.9699 -10.6889
8.9619 18.0367 0.3129 -3.4817 -20.2216 5.0412 0.0000 0.0000 0.0000 -2.9871 1.7747 -26.9684 7.2772 15.5609 49.9150 0.0573 -5.3195 -5.3108 0.3937 -4.0291 -11.1585 0.0000 0.0000 0.0000 22.2629 4.4929 -6.9768 -2.2027 -9.2760 26.6626 -1.5899 0.7048 -23.6411 -0.9038 6.0584 -16.9540 0.1165 -0.1003 5.4871 3.8513 -0.0849 1.8153 3.9130 -0.0566 -1.2019 -6.0841 -0.7812 -22.7575 0.3623 0.9603 23.1401 1.2937 -0.0825 11.2760 0.0000 -0.0000 0.0000 -85.0793 3.1039 13.6023 21.1387 -31.9899 -6.1233 -0.0000 -0.0000 12.8664 4.4994 33.7848 2.5056 -7.1250 0.0000 -0.0000 -32.8347 60.7492 -13.4328 0.0000 -0.0000 0.0000 48.0732 11.3881 28.7536 -135.9381 50.3005 -98.4855 0.0000 0.0000 32.4482 -52.7093 42.7415 -41.7077 7.1250 -0.0000 -0.0000 -6.9950 26.4414 -9.4251
8.9631 18.0335 0.3987 -3.5096 -20.1784 5.1376 0.0000 0.0000 0.0000 -2.7645 1.9218 -26.9637 6.8919 15.2402 48.4642 0.1153 -4.7255 -6.4325 0.5972 -4.9473 -13.7583 0.0000 0.0000 0.0000 22.1953 4.4206 -6.6483 -2.1528 -9.1773 26.3516 -1.6160 0.7278 -23.8304 -0.8853 5.9977 -16.7778 0.1507 0.0044 5.4025 3.7137 0.0537 1.8063 3.7409 0.0133 -1.1734 -6.0104 -0.7701 -22.8603 0.5733 0.8973 22.9689 1.3483 -0.0715 11.2301 0.0000 -0.0000 0.0000 -84.9332 2.8356 12.8688 20.5790 -31.3336 -5.8295 -0.0000 -0.0000 13.2492 3.1600 34.9182 1.8101 -7.1250 0.0000 -0.0000 -35.3661 61.3511 -15.1291 0.0000 -0.0000 0.0000 48.9018 11.9107 28.9140 -136.1777 50.1783 -98.6696 0.0000 0.0000 31.7252 -50.2696 42.4247 -39.0665 7.1250 -0.0000 -0.0000 -6.0289 24.8098 -8.0333
8.9647 18.0296 0.4821 -3.6553 -20.0677 5.2015 0.0000 0.0000 0.0000 -2.3885 2.0068 -26.9038 6.5166 14.9109 47.0214 0.1609 -4.1044 -7.2560 0.6699 -5.2341 -14.5776 0.0000 0.0000 0.0000 22.2625 4.2664 -6.1808 -2.0721 -9.0147 25.8412 -1.6102 0.6854 -23.7998 -0.8098 5.7428 -16.0401 0.1309 0.0349 5.2905 3.7266 0.0885 1.8763 3.7627 0.0290 -1.0410 -6.4026 -0.8561 -22.8544 1.1408 0.7563 22.5706 1.5951 -0.0847 11.0785 0.0000 0.0000 0.0000 -84.9775 2.5408 11.9215 19.9970 -30.6387 -5.5298 -0.0000 -0.0000 13.7922 0.8425 35.4650 0.4889 -7.1250 0.0000 -0.0000 -38.2457 61.2143 -16.4403 0.0000 0.0000 0.0000 49.5234 12.6050 29.1895 -136.7592 49.8769 -99.1153 0.0000 0.0000 30.7677 -47.6671 41.9114 -36.2509 7.1250 -0.0000 -0.0000 -5.0468 22.9736 -6.6351
8.9677 18.0278 0.5624 -4.0082 -19.9038 5.3726 0.0000 0.0000 0.0000 -1.7268 1.9098 -26.8484 6.1565 14.5783 45.6067 0.1931 -3.7438 -7.8508 0.4368 -4.2410 -11.7557 0.0000 0.0000 0.0000 22.6093 4.0080 -5.6407 -1.9818 -8.8281 25.2591 -1.5955 0.3033 -23.8085 -0.9091 6.0757 -17.0043 0.3196 0.0202 5.3685 3.7956 0.0877 1.7018 3.7285 0.0319 -1.2640 -6.6050 -0.8535 -22.3717 1.4545 0.7030 22.1373 1.7277 -0.0747 10.8258 0.0000 -0.0000 0.0000 -84.9410 2.6776 11.3742 19.3631 -29.8674 -5.2104 -0.0000 -0.0000 13.6622 0.2377 35.4830 0.1380 -7.1250 0.0000 -0.0000 -38.8509 61.0795 -16.6214 0.0000 -0.0000 0.0000 50.3692 12.8603 30.2672 -137.5364 49.4636 -99.7078 0.0000 0.0000 29.8833 -47.6265 40.9864 -35.7141 7.1250 -0.0000 -0.0000 -5.3934 22.0307 -7.0459
8.9687 18.0575 0.6506 -4.4488 -19.6485 5.6269 0.0000 0.0000 0.0000 -0.9950 1.6902 -26.7324 5.7723 14.2040 44.0609 0.2017 -3.3043 -7.9867 0.2571 -3.2626 -9.0107 0.0000 0.0000 0.0000 22.9361 3.6063 -5.4332 -1.8933 -8.6402 24.6762 -1.5874 0.5235 -23.6775 -0.8814 5.9850 -16.7408 0.7087 0.0129 5.3947 3.8103 0.1076 1.4969 3.5231 0.0447 -1.4903 -6.5345 -0.7574 -21.9581 1.6403 0.7288 22.0110 1.7841 -0.0299 10.6985 -0.0000 -0.0000 0.0000 -84.7808 2.8977 10.7788 18.8807 -29.2702 -4.9724 -0.0000 -0.0000 13.6399 0.9671 35.1990 0.5575 -7.1250 0.0000 -0.0000 -37.8247 61.0361 -16.0674 -0.0000 -0.0000 0.0000 51.5082 12.9631 30.6926 -137.9148 49.2579 -99.9949 0.0000 0.0000 29.3826 -45.0553 39.8932 -32.7247 7.1250 -0.0000 -0.0000 -4.5842 19.6862 -5.8752
8.9806 18.0580 0.7408 -4.4689 -19.1926 5.7798 0.0000 0.0000 0.0000 -0.6815 1.0931 -26.5777 5.3669 13.7855 42.3849 0.2044 -2.7164 -8.0327 0.1777 -2.7150 -7.4863 0.0000 0.0000 0.0000 22.9005 3.6528 -4.7643 -1.8294 -8.5013 24.2472 -1.6446 0.5143 -24.1092 -0.7498 5.5308 -15.4288 0.7906 -0.0272 5.2677 3.7381 0.0586 1.3862 3.4047 0.0214 -1.5304 -6.9742 -0.8153 -21.6428 2.3375 0.5876 21.8346 2.0836 -0.0392 10.5751 0.0000 -0.0000 0.0000 -84.7150 2.8780 9.8418 18.4917 -28.7822 -4.7836 -0.0000 -0.0000 14.2954 1.4727 35.2216 0.8495 -7.1250 0.0000 -0.0000 -37.3582 61.1780 -15.9629 0.0000 -0.0000 0.0000 52.4860 13.0847 31.1502 -138.5361 48.9137 -100.4644 0.0000 0.0000 28.9625 -44.1684 38.9959 -31.4357 7.1250 -0.0000 -0.0000 -4.4731 18.3569 -5.6681
8.9991 18.0506 0.8311 -4.1059 -18.6682 5.7989 0.0000 0.0000 0.0000 -0.7718 0.3128 -26.3972 4.9354 13.3107 40.5430 0.2247 -2.0596 -8.4741 0.0538 -1.4970 -4.1174 0.0000 0.0000 0.0000 22.3855 3.4295 -4.3806 -1.7813 -8.3950 23.9203 -1.6688 0.6770 -24.2386 -0.6389 5.1138 -14.2335 0.5740 -0.1311 5.1860 3.5644 -0.0909 1.2703 3.3564 -0.0509 -1.5960 -7.5271 -0.8810 -21.2311 3.0802 0.4534 21.4127 2.4134 -0.0452 10.3462 0.0000 -0.0000 0.0000 -84.6219 2.8143 9.1072 17.9841 -28.1368 -4.5417 -0.0000 -0.0000 14.3386 1.0507 35.7421 0.6138 -7.1250 0.0000 -0.0000 -38.3612 61.4826 -16.7440 0.0000 -0.0000 0.0000 53.4092 13.3638 31.5887 -139.1843 48.5458 -100.9516 0.0000 0.0000 27.9550 -43.2098 37.8726 -29.9719 7.1250 -0.0000 -0.0000 -4.3825 16.7602 -5.4733
9.0149 18.0484 0.9205 -4.1697 -18.2787 5.9139 0.0000 0.0000 0.0000 -0.4527 -0.1579 -26.1604 4.5100 12.8098 38.6607 0.2664 -1.5202 -9.3362 0.0035 -0.3822 -1.0502 0.0000 0.0000 0.0000 22.2644 3.5459 -3.8467 -1.7588 -8.3445 23.7654 -1.7538 1.3894 -24.6533 -0.2760 3.3790 -9.3357 0.6638 -0.2145 5.1174 3.5250 -0.1968 1.1963 3.2715 -0.1032 -1.6286 -7.6822 -0.8643 -21.1001 3.2685 0.4689 21.2436 2.5050 -0.0242 10.2583 -0.0000 0.0000 0.0000 -84.6412 2.8014 8.2678 17.5767 -27.6118 -4.3513 -0.0000 -0.0000 14.2219 -9.8331 43.0483 -6.7475 -7.1250 0.0000 -0.0000 -58.4529 63.5739 -31.3685 -0.0000 0.0000 0.0000 54.3451 13.7464 32.1113 -139.8904 48.1347 -101.4792 0.0000 0.0000 26.5756 -41.6726 36.9841 -28.1684 7.1250 -0.0000 -0.0000 -3.8993 15.1648 -4.7930
